{
    "asset" : {
        "generator" : "Khronos glTF Blender I/O v1.4.40",
        "version" : "2.0"
    },
    "scene" : 0,
    "scenes" : [
        {
            "name" : "Scene",
            "nodes" : [
                0
            ]
        }
    ],
    "nodes" : [
        {
            "mesh" : 0,
            "name" : "koltuk",
            "rotation" : [
                0,
                -0.24976171553134918,
                0,
                0.9683073163032532
            ],
            "translation" : [
                0,
                0.0003829072811640799,
                0
            ]
        }
    ],
    "materials" : [
        {
            "doubleSided" : true,
            "name" : "chair",
            "normalTexture" : {
                "index" : 0,
                "texCoord" : 0
            },
            "pbrMetallicRoughness" : {
                "baseColorTexture" : {
                    "index" : 1,
                    "texCoord" : 0
                },
                "metallicFactor" : 0,
                "metallicRoughnessTexture" : {
                    "index" : 2,
                    "texCoord" : 0
                }
            }
        }
    ],
    "meshes" : [
        {
            "name" : "Circle.002",
            "primitives" : [
                {
                    "attributes" : {
                        "POSITION" : 0,
                        "NORMAL" : 1,
                        "TEXCOORD_0" : 2
                    },
                    "indices" : 3,
                    "material" : 0
                }
            ]
        }
    ],
    "textures" : [
        {
            "sampler" : 0,
            "source" : 0
        },
        {
            "sampler" : 0,
            "source" : 1
        },
        {
            "sampler" : 0,
            "source" : 2
        }
    ],
    "images" : [
        {
            "mimeType" : "image/jpeg",
            "name" : "Chair_Normal",
            "uri" : "Chair_Normal.jpg"
        },
        {
            "mimeType" : "image/jpeg",
            "name" : "Chair_Basecolor",
            "uri" : "Chair_Basecolor.jpg"
        },
        {
            "mimeType" : "image/jpeg",
            "name" : "Chair_Roughness",
            "uri" : "Chair_Roughness.jpg"
        }
    ],
    "accessors" : [
        {
            "bufferView" : 0,
            "componentType" : 5126,
            "count" : 28543,
            "max" : [
                0.26460203528404236,
                0.9400967359542847,
                0.30248281359672546
            ],
            "min" : [
                -0.3434152901172638,
                4.468182669370435e-05,
                -0.3024829924106598
            ],
            "type" : "VEC3"
        },
        {
            "bufferView" : 1,
            "componentType" : 5126,
            "count" : 28543,
            "type" : "VEC3"
        },
        {
            "bufferView" : 2,
            "componentType" : 5126,
            "count" : 28543,
            "type" : "VEC2"
        },
        {
            "bufferView" : 3,
            "componentType" : 5123,
            "count" : 130176,
            "type" : "SCALAR"
        }
    ],
    "bufferViews" : [
        {
            "buffer" : 0,
            "byteLength" : 342516,
            "byteOffset" : 0
        },
        {
            "buffer" : 0,
            "byteLength" : 342516,
            "byteOffset" : 342516
        },
        {
            "buffer" : 0,
            "byteLength" : 228344,
            "byteOffset" : 685032
        },
        {
            "buffer" : 0,
            "byteLength" : 260352,
            "byteOffset" : 913376
        }
    ],
    "samplers" : [
        {
            "magFilter" : 9729,
            "minFilter" : 9986
        }
    ],
    "buffers" : [
        {
            "byteLength" : 1173728,
            "uri" : "chair.bin"
        }
    ]
}
